M48
; DRILL file {KiCad 9.0.2} date 2026-05-14T20:18:11-0600
; FORMAT={-:-/ absolute / metric / decimal}
; #@! TF.CreationDate,2026-05-14T20:18:11-06:00
; #@! TF.GenerationSoftware,Kicad,Pcbnew,9.0.2
; #@! TF.FileFunction,Plated,1,2,PTH
FMAT,2
METRIC
; #@! TA.AperFunction,Plated,PTH,ViaDrill
T1C0.300
; #@! TA.AperFunction,Plated,PTH,ComponentDrill
T2C0.600
; #@! TA.AperFunction,Plated,PTH,ComponentDrill
T3C1.000
%
G90
G05
T1
X151.13Y-72.72
X151.155Y-82.906
X151.181Y-85.496
X151.206Y-57.48
X151.206Y-70.206
X151.206Y-95.631
X151.232Y-60.046
X151.232Y-62.586
X151.232Y-75.286
X151.282Y-87.986
X152.171Y-93.04
X152.248Y-54.966
X152.248Y-90.526
X152.273Y-52.426
X152.273Y-57.506
X152.273Y-70.231
X152.298Y-60.046
X152.298Y-62.56
X152.298Y-75.286
X152.324Y-72.746
X152.324Y-85.446
X152.349Y-82.88
X152.349Y-95.58
X152.476Y-87.935
X153.238Y-79.096
X153.695Y-77.343
X153.949Y-65.405
X153.949Y-66.751
X154.422Y-71.146
X154.457Y-50.927
X154.508Y-56.388
X154.605Y-53.7
X154.788Y-60.706
X156.083Y-72.06
X156.158Y-73.944
X156.159Y-64.618
X156.185Y-70.256
X156.87Y-89.586
X157.836Y-65.913
X157.912Y-70.917
X158.132Y-76.74
X158.139Y-78.389
X158.256Y-75.35
X158.72Y-74.698
X158.791Y-76.139
X159.283Y-58.166
X159.487Y-66.751
X159.487Y-68.224
X159.65Y-79.364
X159.817Y-74.346
X160.477Y-85.954
X160.706Y-56.286
X160.757Y-79.248
X161.112Y-73.965
X161.349Y-70.794
X161.798Y-52.197
X162.349Y-70.794
X162.458Y-79.299
X162.992Y-91.897
X163.017Y-69.621
X163.119Y-74.32
X163.153Y-76.441
X163.195Y-63.373
X163.221Y-77.75
X164.211Y-70.688
X164.567Y-68.555
X164.948Y-59.969
X165.055Y-76.353
X165.405Y-81.026
X165.65Y-62.56
X166.294Y-74.117
X166.319Y-69.444
X166.624Y-96.19
X167.843Y-77.597
X168.123Y-59.004
X169.012Y-95.606
X170.307Y-95.631
T3
X151.76Y-48.62
X151.76Y-51.16
X151.76Y-53.7
X151.76Y-56.24
X151.76Y-58.78
X151.76Y-61.32
X151.76Y-63.86
X151.76Y-66.4
X151.76Y-68.94
X151.76Y-71.48
X151.76Y-74.02
X151.76Y-76.56
X151.76Y-79.1
X151.76Y-81.64
X151.76Y-84.18
X151.76Y-86.72
X151.76Y-89.26
X151.76Y-91.8
X151.76Y-94.34
X151.76Y-96.88
X158.11Y-96.64
X160.65Y-96.64
X163.19Y-96.64
X169.54Y-48.62
X169.54Y-51.16
X169.54Y-53.7
X169.54Y-56.24
X169.54Y-58.78
X169.54Y-61.32
X169.54Y-63.86
X169.54Y-66.4
X169.54Y-68.94
X169.54Y-71.48
X169.54Y-74.02
X169.54Y-76.56
X169.54Y-79.1
X169.54Y-81.64
X169.54Y-84.18
X169.54Y-86.72
X169.54Y-89.26
X169.54Y-91.8
X169.54Y-94.34
X169.54Y-96.88
T2
G00X156.33Y-49.0
M15
G01X156.33Y-48.4
M16
G05
G00X156.33Y-53.43
M15
G01X156.33Y-52.33
M16
G05
G00X164.97Y-49.0
M15
G01X164.97Y-48.4
M16
G05
G00X164.97Y-53.43
M15
G01X164.97Y-52.33
M16
G05
M30
